<svg width="1440" height="128" viewBox="0 0 1440 128" fill="none" xmlns="http://www.w3.org/2000/svg">
<g clip-path="url(#clip0_401_1332)">
<path d="M0 127H1440V24.9102C1257.5 7.95 981.576 -0.999994 719.5 -0.999994C457.835 -0.999994 210.28 4.9 0 24.7883V127Z" fill="#09212A"/>
<path d="M705.872 45.441V43.3672C706.5 43.3672 707.088 43.252 707.639 43.0216C708.189 42.7784 708.669 42.4456 709.079 42.0231C709.489 41.6007 709.809 41.1079 710.039 40.5446C710.269 39.9814 710.385 39.3733 710.385 38.7205C710.385 38.0676 710.269 37.4596 710.039 36.8964C709.809 36.3331 709.489 35.8403 709.079 35.4178C708.669 34.9954 708.189 34.669 707.639 34.4386C707.088 34.1954 706.5 34.0738 705.872 34.0738V32C707.191 32 708.356 32.288 709.367 32.8641C710.391 33.4273 711.191 34.2146 711.767 35.2258C712.356 36.2371 712.65 37.402 712.65 38.7205C712.65 40.0262 712.356 41.1847 711.767 42.1959C711.191 43.2072 710.391 44.0009 709.367 44.5769C708.356 45.153 707.191 45.441 705.872 45.441ZM703.088 45.441V43.3672H705.872V45.441H703.088ZM701.648 45.441V32H703.875V45.441H701.648ZM703.088 34.0738V32H705.872V34.0738H703.088Z" fill="white"/>
<path d="M718.609 45.6714C717.674 45.6714 716.842 45.4602 716.113 45.0377C715.383 44.6025 714.813 44.0073 714.404 43.252C713.994 42.4968 713.789 41.6263 713.789 40.6406C713.789 39.655 714 38.7845 714.423 38.0292C714.845 37.274 715.421 36.6851 716.151 36.2627C716.881 35.8275 717.726 35.6099 718.686 35.6099C719.53 35.6099 720.299 35.8339 720.99 36.2819C721.681 36.7171 722.225 37.3508 722.622 38.1829C723.032 39.0149 723.236 40.007 723.236 41.1591H721.067C721.079 40.327 720.983 39.6422 720.779 39.1045C720.587 38.5669 720.305 38.17 719.934 37.914C719.562 37.6452 719.121 37.5108 718.609 37.5108C718.071 37.5108 717.61 37.6324 717.226 37.8756C716.855 38.1188 716.567 38.4773 716.362 38.9509C716.157 39.4117 716.055 39.9942 716.055 40.6982C716.055 41.3255 716.177 41.8631 716.42 42.3112C716.663 42.7592 716.989 43.1048 717.399 43.348C717.822 43.5784 718.289 43.6937 718.801 43.6937C719.364 43.6937 719.831 43.5656 720.203 43.3096C720.574 43.0408 720.862 42.7016 721.067 42.2919L723.044 43.1368C722.775 43.6488 722.436 44.0969 722.027 44.4809C721.617 44.8649 721.124 45.1594 720.548 45.3642C719.972 45.569 719.326 45.6714 718.609 45.6714ZM715.191 41.1591L715.21 39.4501H722.123V41.1591H715.191Z" fill="white"/>
<path d="M727.345 45.441L731.089 35.8403H733.316L729.361 45.441H727.345ZM727.191 45.441L723.217 35.8403H725.425L729.188 45.441H727.191Z" fill="white"/>
<path d="M738.411 45.6714C737.477 45.6714 736.644 45.4602 735.915 45.0377C735.185 44.6025 734.616 44.0073 734.206 43.252C733.796 42.4968 733.591 41.6263 733.591 40.6406C733.591 39.655 733.803 38.7845 734.225 38.0292C734.648 37.274 735.224 36.6851 735.953 36.2627C736.683 35.8275 737.528 35.6099 738.488 35.6099C739.333 35.6099 740.101 35.8339 740.792 36.2819C741.483 36.7171 742.027 37.3508 742.424 38.1829C742.834 39.0149 743.039 40.007 743.039 41.1591H740.869C740.882 40.327 740.786 39.6422 740.581 39.1045C740.389 38.5669 740.107 38.17 739.736 37.914C739.365 37.6452 738.923 37.5108 738.411 37.5108C737.873 37.5108 737.413 37.6324 737.028 37.8756C736.657 38.1188 736.369 38.4773 736.164 38.9509C735.96 39.4117 735.857 39.9942 735.857 40.6982C735.857 41.3255 735.979 41.8631 736.222 42.3112C736.465 42.7592 736.792 43.1048 737.201 43.348C737.624 43.5784 738.091 43.6937 738.603 43.6937C739.166 43.6937 739.633 43.5656 740.005 43.3096C740.376 43.0408 740.664 42.7016 740.869 42.2919L742.847 43.1368C742.578 43.6488 742.238 44.0969 741.829 44.4809C741.419 44.8649 740.926 45.1594 740.35 45.3642C739.774 45.569 739.128 45.6714 738.411 45.6714ZM734.993 41.1591L735.012 39.4501H741.925V41.1591H734.993Z" fill="white"/>
<path d="M744.412 45.441L744.431 32H746.582L746.562 45.441H744.412Z" fill="white"/>
<path d="M753.135 45.6714C752.162 45.6714 751.298 45.4602 750.543 45.0377C749.801 44.6025 749.218 44.0073 748.796 43.252C748.373 42.4968 748.162 41.6263 748.162 40.6406C748.162 39.655 748.367 38.7845 748.776 38.0292C749.199 37.274 749.781 36.6851 750.524 36.2627C751.279 35.8275 752.137 35.6099 753.097 35.6099C754.07 35.6099 754.927 35.8275 755.67 36.2627C756.412 36.6851 756.995 37.274 757.417 38.0292C757.839 38.7845 758.051 39.655 758.051 40.6406C758.051 41.6263 757.839 42.4968 757.417 43.252C756.995 44.0073 756.412 44.6025 755.67 45.0377C754.94 45.4602 754.095 45.6714 753.135 45.6714ZM753.135 43.5976C753.647 43.5976 754.095 43.476 754.479 43.2328C754.876 42.9768 755.183 42.6248 755.401 42.1767C755.631 41.7287 755.747 41.2167 755.747 40.6406C755.747 40.0646 755.631 39.5525 755.401 39.1045C755.183 38.6565 754.87 38.3109 754.46 38.0676C754.063 37.8116 753.609 37.6836 753.097 37.6836C752.585 37.6836 752.13 37.8116 751.733 38.0676C751.337 38.3109 751.023 38.6565 750.793 39.1045C750.575 39.5525 750.466 40.0646 750.466 40.6406C750.466 41.2167 750.575 41.7287 750.793 42.1767C751.023 42.6248 751.337 42.9768 751.733 43.2328C752.143 43.476 752.61 43.5976 753.135 43.5976Z" fill="white"/>
<path d="M759.716 49.2813V35.8403H761.732L761.867 37.6068V49.2813H759.716ZM764.9 45.6714C764.094 45.6714 763.396 45.4666 762.807 45.0569C762.231 44.6345 761.79 44.0457 761.483 43.2904C761.175 42.5352 761.022 41.6519 761.022 40.6406C761.022 39.6166 761.175 38.7333 761.483 37.9908C761.79 37.2356 762.231 36.6531 762.807 36.2435C763.396 35.8211 764.094 35.6099 764.9 35.6099C765.771 35.6099 766.526 35.8211 767.166 36.2435C767.819 36.6531 768.325 37.2356 768.683 37.9908C769.054 38.7333 769.24 39.6166 769.24 40.6406C769.24 41.6519 769.054 42.5352 768.683 43.2904C768.325 44.0457 767.819 44.6345 767.166 45.0569C766.526 45.4666 765.771 45.6714 764.9 45.6714ZM764.363 43.7129C764.875 43.7129 765.329 43.5848 765.726 43.3288C766.123 43.06 766.436 42.6952 766.667 42.2343C766.91 41.7735 767.032 41.2423 767.032 40.6406C767.032 40.039 766.917 39.5077 766.686 39.0469C766.468 38.5861 766.161 38.2277 765.764 37.9716C765.368 37.7156 764.907 37.5876 764.382 37.5876C763.895 37.5876 763.46 37.7156 763.076 37.9716C762.692 38.2277 762.391 38.5861 762.174 39.0469C761.969 39.5077 761.867 40.039 761.867 40.6406C761.867 41.2423 761.969 41.7735 762.174 42.2343C762.391 42.6952 762.686 43.06 763.057 43.3288C763.441 43.5848 763.876 43.7129 764.363 43.7129Z" fill="white"/>
<path d="M775.09 45.6714C774.156 45.6714 773.324 45.4602 772.594 45.0377C771.864 44.6025 771.295 44.0073 770.885 43.252C770.475 42.4968 770.271 41.6263 770.271 40.6406C770.271 39.655 770.482 38.7845 770.904 38.0292C771.327 37.274 771.903 36.6851 772.632 36.2627C773.362 35.8275 774.207 35.6099 775.167 35.6099C776.012 35.6099 776.78 35.8339 777.471 36.2819C778.162 36.7171 778.706 37.3508 779.103 38.1829C779.513 39.0149 779.718 40.007 779.718 41.1591H777.548C777.561 40.327 777.465 39.6422 777.26 39.1045C777.068 38.5669 776.786 38.17 776.415 37.914C776.044 37.6452 775.602 37.5108 775.09 37.5108C774.553 37.5108 774.092 37.6324 773.708 37.8756C773.336 38.1188 773.048 38.4773 772.844 38.9509C772.639 39.4117 772.536 39.9942 772.536 40.6982C772.536 41.3255 772.658 41.8631 772.901 42.3112C773.144 42.7592 773.471 43.1048 773.88 43.348C774.303 43.5784 774.77 43.6937 775.282 43.6937C775.845 43.6937 776.313 43.5656 776.684 43.3096C777.055 43.0408 777.343 42.7016 777.548 42.2919L779.526 43.1368C779.257 43.6488 778.918 44.0969 778.508 44.4809C778.098 44.8649 777.606 45.1594 777.029 45.3642C776.453 45.569 775.807 45.6714 775.09 45.6714ZM771.672 41.1591L771.691 39.4501H778.604V41.1591H771.672Z" fill="white"/>
<path d="M782.512 40.3334C782.512 39.2965 782.71 38.4453 783.107 37.7796C783.504 37.114 784.016 36.6211 784.643 36.3011C785.283 35.9683 785.949 35.8019 786.64 35.8019V37.8564C786.051 37.8564 785.495 37.9396 784.97 38.106C784.458 38.2597 784.042 38.5157 783.722 38.8741C783.402 39.2325 783.242 39.7062 783.242 40.295L782.512 40.3334ZM781.091 45.441V35.8403H783.242V45.441H781.091Z" fill="white"/>
<path d="M710.961 63.7696L705.719 50.3286H707.946L713.322 63.7696H710.961ZM700.227 63.7696L705.584 50.3286H707.831L702.589 63.7696H700.227ZM702.742 60.4669V58.4892H710.788V60.4669H702.742Z" fill="white"/>
<path d="M716.341 61.0814L715.036 59.6029L720.028 54.1689H722.62L716.341 61.0814ZM714.287 63.7696V50.3286H716.437V63.7696H714.287ZM720.393 63.7696L717.013 58.7964L718.415 57.2987L722.947 63.7696H720.393Z" fill="white"/>
<path d="M729.361 63.7696L729.265 58.8348C729.265 58.182 729.195 57.6379 729.054 57.2027C728.913 56.7675 728.695 56.4346 728.401 56.2042C728.107 55.9738 727.71 55.8586 727.211 55.8586C726.763 55.8586 726.366 55.9546 726.02 56.1466C725.674 56.3386 725.386 56.6331 725.156 57.0299L723.236 56.3578C723.453 55.9354 723.735 55.5386 724.081 55.1674C724.426 54.7961 724.862 54.5017 725.386 54.2841C725.911 54.0537 726.539 53.9385 727.268 53.9385C728.19 53.9385 728.958 54.1113 729.572 54.4569C730.2 54.8025 730.667 55.3146 730.974 55.993C731.281 56.6715 731.435 57.5099 731.435 58.5084V63.7696H729.361ZM726.635 64C725.495 64 724.606 63.744 723.966 63.2319C723.338 62.7199 723.025 61.9967 723.025 61.0622C723.025 60.0637 723.357 59.3021 724.023 58.7772C724.702 58.2524 725.642 57.99 726.846 57.99H729.86L729.88 59.6413H727.518C726.66 59.6413 726.058 59.7629 725.713 60.0061C725.38 60.2365 725.214 60.5694 725.214 61.0046C725.214 61.3758 725.361 61.6702 725.655 61.8878C725.962 62.0927 726.385 62.1951 726.923 62.1951C727.396 62.1951 727.806 62.0863 728.151 61.8686C728.51 61.6382 728.785 61.3438 728.977 60.9854C729.169 60.6142 729.265 60.2173 729.265 59.7949H730.072C730.072 61.1006 729.79 62.1311 729.227 62.8863C728.676 63.6288 727.812 64 726.635 64Z" fill="white"/>
<path d="M740.177 63.7696L740.081 61.9839V50.3286H742.212V63.7696H740.177ZM737.047 64C736.176 64 735.415 63.7952 734.762 63.3856C734.122 62.9631 733.616 62.3743 733.245 61.619C732.887 60.8638 732.707 59.9805 732.707 58.9692C732.707 57.9452 732.887 57.0619 733.245 56.3194C733.616 55.5642 734.122 54.9817 734.762 54.5721C735.415 54.1497 736.176 53.9385 737.047 53.9385C737.853 53.9385 738.545 54.1497 739.121 54.5721C739.71 54.9817 740.158 55.5642 740.465 56.3194C740.772 57.0619 740.926 57.9452 740.926 58.9692C740.926 59.9805 740.772 60.8638 740.465 61.619C740.158 62.3743 739.71 62.9631 739.121 63.3856C738.545 63.7952 737.853 64 737.047 64ZM737.585 62.0415C738.071 62.0415 738.5 61.9134 738.871 61.6574C739.255 61.3886 739.55 61.0238 739.754 60.563C739.972 60.1021 740.081 59.5709 740.081 58.9692C740.081 58.3676 739.972 57.8364 739.754 57.3755C739.55 56.9147 739.255 56.5563 738.871 56.3002C738.5 56.0442 738.065 55.9162 737.565 55.9162C737.053 55.9162 736.599 56.0442 736.202 56.3002C735.805 56.5563 735.492 56.9147 735.261 57.3755C735.044 57.8364 734.928 58.3676 734.916 58.9692C734.928 59.5709 735.044 60.1021 735.261 60.563C735.492 61.0238 735.805 61.3886 736.202 61.6574C736.612 61.9134 737.073 62.0415 737.585 62.0415Z" fill="white"/>
<path d="M748.603 64C747.668 64 746.836 63.7888 746.107 63.3664C745.377 62.9311 744.807 62.3359 744.398 61.5806C743.988 60.8254 743.783 59.9549 743.783 58.9692C743.783 57.9836 743.994 57.1131 744.417 56.3578C744.839 55.6026 745.415 55.0137 746.145 54.5913C746.875 54.1561 747.719 53.9385 748.68 53.9385C749.524 53.9385 750.292 54.1625 750.984 54.6105C751.675 55.0457 752.219 55.6794 752.616 56.5115C753.025 57.3435 753.23 58.3356 753.23 59.4877H751.061C751.073 58.6556 750.977 57.9708 750.772 57.4331C750.58 56.8955 750.299 56.4987 749.928 56.2426C749.556 55.9738 749.115 55.8394 748.603 55.8394C748.065 55.8394 747.604 55.961 747.22 56.2042C746.849 56.4474 746.561 56.8059 746.356 57.2795C746.151 57.7403 746.049 58.3228 746.049 59.0268C746.049 59.6541 746.171 60.1917 746.414 60.6398C746.657 61.0878 746.983 61.4334 747.393 61.6766C747.815 61.907 748.283 62.0223 748.795 62.0223C749.358 62.0223 749.825 61.8942 750.196 61.6382C750.568 61.3694 750.856 61.0302 751.061 60.6206L753.038 61.4654C752.769 61.9775 752.43 62.4255 752.021 62.8095C751.611 63.1935 751.118 63.488 750.542 63.6928C749.966 63.8976 749.32 64 748.603 64ZM745.185 59.4877L745.204 57.7787H752.117V59.4877H745.185Z" fill="white"/>
<path d="M754.604 63.7696V54.1689H756.62L756.754 55.9354V63.7696H754.604ZM761.113 63.7696V58.854L763.263 58.278V63.7696H761.113ZM767.641 63.7696V58.854L769.773 58.278V63.7696H767.641ZM761.113 58.854C761.113 58.086 761.023 57.4971 760.844 57.0875C760.678 56.6651 760.434 56.3706 760.114 56.2042C759.807 56.0378 759.442 55.9546 759.02 55.9546C758.303 55.9418 757.746 56.1786 757.349 56.6651C756.953 57.1515 756.754 57.8492 756.754 58.758H755.948C755.948 57.7467 756.095 56.8827 756.389 56.1658C756.684 55.4362 757.106 54.8857 757.657 54.5145C758.207 54.1305 758.86 53.9385 759.615 53.9385C760.78 53.9385 761.676 54.2969 762.303 55.0137C762.943 55.7178 763.263 56.8059 763.263 58.278L761.113 58.854ZM767.641 58.854C767.641 58.086 767.552 57.4971 767.373 57.0875C767.193 56.6651 766.944 56.3706 766.624 56.2042C766.316 56.0378 765.958 55.9546 765.548 55.9546C764.819 55.9418 764.256 56.1786 763.859 56.6651C763.462 57.1515 763.263 57.8492 763.263 58.758H762.457C762.457 57.7467 762.604 56.8827 762.899 56.1658C763.193 55.4362 763.615 54.8857 764.166 54.5145C764.716 54.1305 765.369 53.9385 766.124 53.9385C767.289 53.9385 768.192 54.2969 768.832 55.0137C769.472 55.7178 769.786 56.8059 769.773 58.278L767.641 58.854Z" fill="white"/>
<path d="M771.718 63.7696L771.737 54.1689H773.868L773.849 63.7696H771.718ZM772.793 52.3448C772.447 52.3448 772.147 52.2231 771.891 51.9799C771.647 51.7239 771.526 51.4231 771.526 51.0775C771.526 50.7318 771.647 50.4374 771.891 50.1942C772.147 49.951 772.447 49.8294 772.793 49.8294C773.139 49.8294 773.433 49.951 773.676 50.1942C773.932 50.4374 774.06 50.7318 774.06 51.0775C774.06 51.4231 773.932 51.7239 773.676 51.9799C773.433 52.2231 773.139 52.3448 772.793 52.3448Z" fill="white"/>
<path d="M780.397 64C779.462 64 778.63 63.7888 777.901 63.3664C777.171 62.9311 776.601 62.3359 776.192 61.5806C775.782 60.8254 775.577 59.9549 775.577 58.9692C775.577 57.9836 775.788 57.1131 776.211 56.3578C776.633 55.6026 777.209 55.0137 777.939 54.5913C778.669 54.1561 779.514 53.9385 780.474 53.9385C781.318 53.9385 782.087 54.1625 782.778 54.6105C783.469 55.0457 784.013 55.6794 784.41 56.5115C784.82 57.3435 785.024 58.3356 785.024 59.4877H782.855C782.867 58.6556 782.771 57.9708 782.567 57.4331C782.375 56.8955 782.093 56.4987 781.722 56.2426C781.35 55.9738 780.909 55.8394 780.397 55.8394C779.859 55.8394 779.398 55.961 779.014 56.2042C778.643 56.4474 778.355 56.8059 778.15 57.2795C777.945 57.7403 777.843 58.3228 777.843 59.0268C777.843 59.6541 777.965 60.1917 778.208 60.6398C778.451 61.0878 778.777 61.4334 779.187 61.6766C779.61 61.907 780.077 62.0223 780.589 62.0223C781.152 62.0223 781.619 61.8942 781.99 61.6382C782.362 61.3694 782.65 61.0302 782.855 60.6206L784.832 61.4654C784.563 61.9775 784.224 62.4255 783.815 62.8095C783.405 63.1935 782.912 63.488 782.336 63.6928C781.76 63.8976 781.114 64 780.397 64ZM776.979 59.4877L776.998 57.7787H783.911V59.4877H776.979Z" fill="white"/>
<path d="M673.287 52.4497C673.295 52.5048 673.329 52.5525 673.378 52.5783C673.428 52.6041 673.486 52.6049 673.536 52.5804L680.813 49.0079C680.86 48.9853 680.893 48.9434 680.906 48.8935C680.998 48.525 681.027 48.1596 681.027 47.7655C681.027 47.3298 680.967 46.9325 680.909 46.5811C680.899 46.5253 680.864 46.4775 680.813 46.4527L673.536 42.9153C673.486 42.8913 673.428 42.892 673.379 42.9172C673.33 42.9425 673.296 42.9894 673.287 43.0437L673.286 43.0501C673.258 43.2167 673.228 43.3987 673.226 43.5833C673.197 43.7696 673.197 43.9857 673.197 44.184V44.1931C673.197 44.2672 673.204 44.3484 673.211 44.4242L673.213 44.4403C673.22 44.524 673.226 44.6045 673.226 44.6834C673.226 44.693 673.227 44.7026 673.229 44.712C673.241 44.7883 673.248 44.8653 673.255 44.9464L673.256 44.9569C673.263 45.0384 673.271 45.1275 673.288 45.2093C673.3 45.2642 673.337 45.3103 673.388 45.3332L678.772 47.7337L673.386 50.2339C673.336 50.2572 673.3 50.3027 673.288 50.3568C673.259 50.4976 673.228 50.6805 673.226 50.8682C673.197 51.0528 673.197 51.236 673.197 51.435V51.443C673.197 51.735 673.228 52.0596 673.287 52.4497Z" fill="#FD5B4F"/>
<path fill-rule="evenodd" clip-rule="evenodd" d="M670.872 39.1772C670.921 39.203 670.955 39.2507 670.963 39.3057C671.022 39.6959 671.053 40.0205 671.053 40.3125V40.3206C671.053 40.5195 671.053 40.7027 671.023 40.8873C671.022 41.075 670.991 41.2578 670.962 41.3987C670.95 41.4527 670.914 41.4983 670.864 41.5215L665.478 44.0218L670.862 46.4223C670.913 46.4451 670.95 46.4913 670.962 46.5462C670.979 46.628 670.987 46.7171 670.994 46.7985L670.995 46.809C671.002 46.8901 671.008 46.9671 671.021 47.0434C671.023 47.0529 671.024 47.0625 671.024 47.072C671.024 47.151 671.03 47.2315 671.037 47.3151L671.039 47.3312C671.045 47.407 671.053 47.4882 671.053 47.5624V47.5715C671.053 47.7699 671.053 47.9859 671.023 48.1721C671.022 48.3568 670.992 48.5388 670.964 48.7052L670.963 48.7118C670.954 48.7661 670.92 48.813 670.871 48.8382C670.822 48.8635 670.764 48.8642 670.714 48.8401L663.437 45.3027C663.386 45.278 663.351 45.2302 663.341 45.1744C663.283 44.823 663.222 44.4256 663.222 43.99C663.222 43.5959 663.252 43.2304 663.344 42.862C663.357 42.8121 663.39 42.7702 663.437 42.7475L670.714 39.1751C670.764 39.1506 670.822 39.1514 670.872 39.1772Z" fill="#FD5B4F"/>
<path fill-rule="evenodd" clip-rule="evenodd" d="M686.962 32.7859H657.287C655.118 32.7859 653.36 34.5443 653.36 36.7134V55.042C653.36 57.2112 655.118 58.9696 657.287 58.9696H686.962C689.131 58.9696 690.89 57.2112 690.89 55.042V36.7134C690.89 34.5443 689.131 32.7859 686.962 32.7859ZM655.542 36.7134C655.542 35.7494 656.323 34.9679 657.287 34.9679H686.962C687.926 34.9679 688.708 35.7494 688.708 36.7134V55.042C688.708 56.0061 687.926 56.7876 686.962 56.7876H657.287C656.323 56.7876 655.542 56.0061 655.542 55.042V36.7134Z" fill="#FD5B4F"/>
<path d="M657.506 61.1516C656.903 61.1516 656.415 61.64 656.415 62.2426C656.415 62.8451 656.903 63.3336 657.506 63.3336H686.744C687.347 63.3336 687.835 62.8451 687.835 62.2426C687.835 61.64 687.347 61.1516 686.744 61.1516H657.506Z" fill="#FD5B4F"/>
<path d="M620.304 93.143C619.645 93.143 619.03 93.026 618.458 92.792C617.895 92.5493 617.396 92.2157 616.963 91.791C616.53 91.3577 616.192 90.8593 615.949 90.296C615.715 89.724 615.598 89.1087 615.598 88.45C615.598 87.7913 615.715 87.1803 615.949 86.617C616.192 86.045 616.53 85.5423 616.963 85.109C617.396 84.6757 617.895 84.342 618.458 84.108C619.03 83.8653 619.645 83.744 620.304 83.744C620.954 83.744 621.565 83.8653 622.137 84.108C622.709 84.342 623.207 84.6757 623.632 85.109C624.057 85.5423 624.39 86.045 624.633 86.617C624.876 87.1803 624.997 87.7913 624.997 88.45C624.997 89.1087 624.876 89.724 624.633 90.296C624.39 90.8593 624.057 91.3577 623.632 91.791C623.207 92.2157 622.709 92.5493 622.137 92.792C621.565 93.026 620.954 93.143 620.304 93.143ZM620.278 91.024C619.81 91.024 619.394 90.9157 619.03 90.699C618.666 90.4823 618.38 90.1833 618.172 89.802C617.964 89.412 617.86 88.9613 617.86 88.45C617.86 87.9387 617.964 87.4923 618.172 87.111C618.38 86.721 618.662 86.4177 619.017 86.201C619.381 85.9843 619.797 85.876 620.265 85.876C620.69 85.876 621.088 85.9887 621.461 86.214C621.842 86.4393 622.124 86.7297 622.306 87.085L622.475 87.436L621.682 87.748L621.513 87.475C621.4 87.2583 621.227 87.085 620.993 86.955C620.759 86.8163 620.516 86.747 620.265 86.747C619.823 86.747 619.459 86.9073 619.173 87.228C618.896 87.54 618.757 87.9473 618.757 88.45C618.757 88.9527 618.9 89.3643 619.186 89.685C619.472 89.997 619.836 90.153 620.278 90.153C620.538 90.153 620.781 90.0793 621.006 89.932C621.24 89.776 621.422 89.5767 621.552 89.334L621.682 89.074L622.514 89.386L622.358 89.711C622.159 90.101 621.868 90.4173 621.487 90.66C621.106 90.9027 620.703 91.024 620.278 91.024ZM620.304 92.298C621.032 92.298 621.678 92.1333 622.241 91.804C622.813 91.4747 623.259 91.0197 623.58 90.439C623.909 89.8583 624.074 89.1953 624.074 88.45C624.074 87.696 623.909 87.0287 623.58 86.448C623.259 85.8673 622.813 85.4123 622.241 85.083C621.678 84.7537 621.032 84.589 620.304 84.589C619.576 84.589 618.926 84.7537 618.354 85.083C617.782 85.4123 617.331 85.8673 617.002 86.448C616.681 87.0287 616.521 87.696 616.521 88.45C616.521 89.1953 616.681 89.8583 617.002 90.439C617.331 91.0197 617.782 91.4747 618.354 91.804C618.926 92.1333 619.576 92.298 620.304 92.298ZM630.646 92.363L629.554 92.09C629.554 91.804 629.61 91.5223 629.723 91.245C629.844 90.959 630.013 90.6773 630.23 90.4C630.455 90.1227 630.728 89.8627 631.049 89.62L632.934 88.203C633.159 88.047 633.354 87.8693 633.519 87.67C633.692 87.462 633.826 87.2497 633.922 87.033C634.017 86.8077 634.065 86.591 634.065 86.383C634.065 86.0797 633.991 85.8067 633.844 85.564C633.696 85.3127 633.488 85.1133 633.22 84.966C632.951 84.8187 632.635 84.745 632.271 84.745C631.915 84.745 631.603 84.8143 631.335 84.953C631.066 85.083 630.845 85.2607 630.672 85.486C630.498 85.7027 630.373 85.9367 630.295 86.188L629.177 85.967C629.281 85.577 629.467 85.213 629.736 84.875C630.013 84.537 630.364 84.264 630.789 84.056C631.213 83.848 631.686 83.744 632.206 83.744C632.812 83.744 633.337 83.861 633.779 84.095C634.221 84.3203 634.563 84.6323 634.806 85.031C635.057 85.421 635.183 85.8673 635.183 86.37C635.183 86.8467 635.053 87.2973 634.793 87.722C634.533 88.1467 634.156 88.5583 633.662 88.957L631.881 90.309C631.629 90.491 631.408 90.6903 631.218 90.907C631.036 91.1237 630.893 91.3533 630.789 91.596C630.693 91.83 630.646 92.0857 630.646 92.363ZM629.554 93V92.09L630.386 92.025H635.312V93H629.554ZM640.234 93.156C639.541 93.156 638.926 92.9567 638.388 92.558C637.851 92.1507 637.431 91.596 637.127 90.894C636.824 90.1833 636.672 89.3687 636.672 88.45C636.672 87.5313 636.824 86.721 637.127 86.019C637.431 85.3083 637.847 84.7537 638.375 84.355C638.913 83.9477 639.532 83.744 640.234 83.744C640.936 83.744 641.552 83.9477 642.08 84.355C642.618 84.7537 643.038 85.3083 643.341 86.019C643.653 86.721 643.809 87.5313 643.809 88.45C643.809 89.3687 643.658 90.1833 643.354 90.894C643.051 91.596 642.631 92.1507 642.093 92.558C641.556 92.9567 640.936 93.156 640.234 93.156ZM640.234 92.168C640.72 92.168 641.149 92.0077 641.521 91.687C641.903 91.3663 642.197 90.9287 642.405 90.374C642.622 89.8193 642.73 89.178 642.73 88.45C642.73 87.722 642.622 87.0807 642.405 86.526C642.197 85.9627 641.903 85.525 641.521 85.213C641.149 84.8923 640.72 84.732 640.234 84.732C639.749 84.732 639.32 84.8923 638.947 85.213C638.575 85.525 638.28 85.9627 638.063 86.526C637.855 87.0807 637.751 87.722 637.751 88.45C637.751 89.178 637.855 89.8193 638.063 90.374C638.28 90.9287 638.575 91.3663 638.947 91.687C639.329 92.0077 639.758 92.168 640.234 92.168ZM646.235 92.363L645.143 92.09C645.143 91.804 645.2 91.5223 645.312 91.245C645.434 90.959 645.603 90.6773 645.819 90.4C646.045 90.1227 646.318 89.8627 646.638 89.62L648.523 88.203C648.749 88.047 648.944 87.8693 649.108 87.67C649.282 87.462 649.416 87.2497 649.511 87.033C649.607 86.8077 649.654 86.591 649.654 86.383C649.654 86.0797 649.581 85.8067 649.433 85.564C649.286 85.3127 649.078 85.1133 648.809 84.966C648.541 84.8187 648.224 84.745 647.86 84.745C647.505 84.745 647.193 84.8143 646.924 84.953C646.656 85.083 646.435 85.2607 646.261 85.486C646.088 85.7027 645.962 85.9367 645.884 86.188L644.766 85.967C644.87 85.577 645.057 85.213 645.325 84.875C645.603 84.537 645.954 84.264 646.378 84.056C646.803 83.848 647.275 83.744 647.795 83.744C648.402 83.744 648.926 83.861 649.368 84.095C649.81 84.3203 650.153 84.6323 650.395 85.031C650.647 85.421 650.772 85.8673 650.772 86.37C650.772 86.8467 650.642 87.2973 650.382 87.722C650.122 88.1467 649.745 88.5583 649.251 88.957L647.47 90.309C647.219 90.491 646.998 90.6903 646.807 90.907C646.625 91.1237 646.482 91.3533 646.378 91.596C646.283 91.83 646.235 92.0857 646.235 92.363ZM645.143 93V92.09L645.975 92.025H650.902V93H645.143ZM655.161 93.156C654.719 93.156 654.316 93.091 653.952 92.961C653.597 92.8223 653.289 92.6447 653.029 92.428C652.778 92.2113 652.578 91.9817 652.431 91.739L653.341 91.232C653.436 91.3533 653.553 91.492 653.692 91.648C653.839 91.7953 654.026 91.921 654.251 92.025C654.476 92.129 654.754 92.181 655.083 92.181C655.672 92.181 656.145 92.012 656.5 91.674C656.855 91.336 657.033 90.9113 657.033 90.4C657.033 90.01 656.925 89.6807 656.708 89.412C656.5 89.1433 656.197 88.9397 655.798 88.801C655.399 88.6623 654.923 88.593 654.368 88.593H654.121V87.735H654.342C654.888 87.735 655.391 87.7957 655.85 87.917C656.309 88.0383 656.708 88.216 657.046 88.45C657.393 88.684 657.657 88.97 657.839 89.308C658.03 89.646 658.125 90.036 658.125 90.478C658.125 91.0153 657.991 91.4877 657.722 91.895C657.462 92.2937 657.107 92.6057 656.656 92.831C656.205 93.0477 655.707 93.156 655.161 93.156ZM654.121 88.502V87.657H654.368C655.113 87.657 655.703 87.5313 656.136 87.28C656.578 87.02 656.799 86.6517 656.799 86.175C656.799 85.915 656.73 85.6767 656.591 85.46C656.452 85.2347 656.249 85.057 655.98 84.927C655.72 84.7883 655.417 84.719 655.07 84.719C654.836 84.719 654.615 84.7537 654.407 84.823C654.208 84.8837 654.021 84.979 653.848 85.109C653.683 85.2303 653.532 85.3863 653.393 85.577L652.535 85.083C652.7 84.8143 652.908 84.5803 653.159 84.381C653.419 84.1817 653.714 84.0257 654.043 83.913C654.372 83.8003 654.732 83.744 655.122 83.744C655.651 83.744 656.123 83.848 656.539 84.056C656.964 84.264 657.297 84.55 657.54 84.914C657.783 85.2693 657.904 85.6723 657.904 86.123C657.904 86.5043 657.813 86.8423 657.631 87.137C657.449 87.4317 657.193 87.683 656.864 87.891C656.543 88.099 656.166 88.255 655.733 88.359C655.308 88.4543 654.845 88.502 654.342 88.502H654.121ZM665.925 93V91.986C666.385 91.986 666.809 91.8993 667.199 91.726C667.589 91.544 667.932 91.2883 668.226 90.959C668.53 90.6297 668.764 90.2527 668.928 89.828C669.102 89.3947 669.188 88.9353 669.188 88.45C669.188 87.9647 669.102 87.5097 668.928 87.085C668.764 86.6517 668.53 86.2703 668.226 85.941C667.932 85.6117 667.589 85.3603 667.199 85.187C666.809 85.005 666.385 84.914 665.925 84.914V83.9C666.783 83.9 667.537 84.095 668.187 84.485C668.846 84.8663 669.362 85.3993 669.734 86.084C670.107 86.7687 670.293 87.5573 670.293 88.45C670.293 89.334 670.107 90.1183 669.734 90.803C669.362 91.4877 668.846 92.025 668.187 92.415C667.537 92.805 666.783 93 665.925 93ZM664.04 93V91.986H665.925V93H664.04ZM663.156 93V83.9H664.261V93H663.156ZM664.04 84.914V83.9H665.925V84.914H664.04ZM674.654 93.156C674.022 93.156 673.463 93.013 672.977 92.727C672.492 92.4323 672.111 92.0293 671.833 91.518C671.565 91.0067 671.43 90.4173 671.43 89.75C671.43 89.0827 671.565 88.4933 671.833 87.982C672.111 87.4707 672.488 87.072 672.964 86.786C673.45 86.4913 674.004 86.344 674.628 86.344C675.226 86.344 675.746 86.4957 676.188 86.799C676.639 87.0937 676.986 87.5097 677.228 88.047C677.471 88.5843 677.592 89.217 677.592 89.945H676.552C676.552 89.3903 676.479 88.918 676.331 88.528C676.184 88.1293 675.963 87.8217 675.668 87.605C675.382 87.3883 675.031 87.28 674.615 87.28C674.191 87.28 673.814 87.384 673.484 87.592C673.164 87.7913 672.917 88.0773 672.743 88.45C672.57 88.8227 672.483 89.2603 672.483 89.763C672.483 90.257 672.579 90.686 672.769 91.05C672.96 91.4053 673.224 91.687 673.562 91.895C673.9 92.0943 674.282 92.194 674.706 92.194C675.157 92.194 675.538 92.0857 675.85 91.869C676.162 91.6523 676.409 91.3707 676.591 91.024L677.501 91.479C677.337 91.817 677.116 92.1117 676.838 92.363C676.57 92.6143 676.249 92.8093 675.876 92.948C675.512 93.0867 675.105 93.156 674.654 93.156ZM672.119 89.945L672.132 89.048H676.955V89.945H672.119ZM680.728 93L683.38 86.5H684.472L681.755 93H680.728ZM680.663 93L677.946 86.5H679.025L681.677 93H680.663ZM688.188 93.156C687.555 93.156 686.996 93.013 686.511 92.727C686.025 92.4323 685.644 92.0293 685.367 91.518C685.098 91.0067 684.964 90.4173 684.964 89.75C684.964 89.0827 685.098 88.4933 685.367 87.982C685.644 87.4707 686.021 87.072 686.498 86.786C686.983 86.4913 687.538 86.344 688.162 86.344C688.76 86.344 689.28 86.4957 689.722 86.799C690.172 87.0937 690.519 87.5097 690.762 88.047C691.004 88.5843 691.126 89.217 691.126 89.945H690.086C690.086 89.3903 690.012 88.918 689.865 88.528C689.717 88.1293 689.496 87.8217 689.202 87.605C688.916 87.3883 688.565 87.28 688.149 87.28C687.724 87.28 687.347 87.384 687.018 87.592C686.697 87.7913 686.45 88.0773 686.277 88.45C686.103 88.8227 686.017 89.2603 686.017 89.763C686.017 90.257 686.112 90.686 686.303 91.05C686.493 91.4053 686.758 91.687 687.096 91.895C687.434 92.0943 687.815 92.194 688.24 92.194C688.69 92.194 689.072 92.0857 689.384 91.869C689.696 91.6523 689.943 91.3707 690.125 91.024L691.035 91.479C690.87 91.817 690.649 92.1117 690.372 92.363C690.103 92.6143 689.782 92.8093 689.41 92.948C689.046 93.0867 688.638 93.156 688.188 93.156ZM685.653 89.945L685.666 89.048H690.489V89.945H685.653ZM692.437 93V83.9H693.477V93H692.437ZM698.167 93.156C697.534 93.156 696.971 93.013 696.477 92.727C695.991 92.4323 695.61 92.0293 695.333 91.518C695.055 91.0067 694.917 90.4173 694.917 89.75C694.917 89.0827 695.051 88.4933 695.32 87.982C695.597 87.4707 695.978 87.072 696.464 86.786C696.958 86.4913 697.517 86.344 698.141 86.344C698.782 86.344 699.345 86.4913 699.831 86.786C700.325 87.072 700.706 87.4707 700.975 87.982C701.252 88.4933 701.391 89.0827 701.391 89.75C701.391 90.4173 701.252 91.0067 700.975 91.518C700.706 92.0293 700.329 92.4323 699.844 92.727C699.358 93.013 698.799 93.156 698.167 93.156ZM698.167 92.194C698.6 92.194 698.977 92.09 699.298 91.882C699.618 91.674 699.87 91.388 700.052 91.024C700.242 90.66 700.338 90.2353 700.338 89.75C700.338 89.2647 700.242 88.84 700.052 88.476C699.87 88.112 699.614 87.826 699.285 87.618C698.955 87.41 698.574 87.306 698.141 87.306C697.716 87.306 697.339 87.41 697.01 87.618C696.689 87.826 696.433 88.112 696.243 88.476C696.061 88.84 695.97 89.2647 695.97 89.75C695.97 90.2267 696.061 90.6513 696.243 91.024C696.433 91.388 696.693 91.674 697.023 91.882C697.361 92.09 697.742 92.194 698.167 92.194ZM702.9 95.6V86.5H703.875L703.94 87.696V95.6H702.9ZM706.137 93.156C705.591 93.156 705.11 93.013 704.694 92.727C704.286 92.441 703.97 92.0423 703.745 91.531C703.519 91.011 703.407 90.4173 703.407 89.75C703.407 89.074 703.519 88.4803 703.745 87.969C703.97 87.4577 704.286 87.059 704.694 86.773C705.11 86.487 705.591 86.344 706.137 86.344C706.717 86.344 707.229 86.487 707.671 86.773C708.113 87.059 708.455 87.4577 708.698 87.969C708.949 88.4803 709.075 89.074 709.075 89.75C709.075 90.4173 708.949 91.011 708.698 91.531C708.455 92.0423 708.113 92.441 707.671 92.727C707.229 93.013 706.717 93.156 706.137 93.156ZM705.903 92.207C706.31 92.207 706.67 92.103 706.982 91.895C707.302 91.687 707.554 91.3967 707.736 91.024C707.926 90.6513 708.022 90.2267 708.022 89.75C708.022 89.2733 707.931 88.8487 707.749 88.476C707.575 88.1033 707.328 87.813 707.008 87.605C706.687 87.397 706.323 87.293 705.916 87.293C705.534 87.293 705.192 87.397 704.889 87.605C704.594 87.813 704.36 88.1033 704.187 88.476C704.022 88.8487 703.94 89.2733 703.94 89.75C703.94 90.2267 704.022 90.6513 704.187 91.024C704.36 91.3967 704.594 91.687 704.889 91.895C705.183 92.103 705.521 92.207 705.903 92.207ZM713.362 93.156C712.73 93.156 712.171 93.013 711.685 92.727C711.2 92.4323 710.819 92.0293 710.541 91.518C710.273 91.0067 710.138 90.4173 710.138 89.75C710.138 89.0827 710.273 88.4933 710.541 87.982C710.819 87.4707 711.196 87.072 711.672 86.786C712.158 86.4913 712.712 86.344 713.336 86.344C713.934 86.344 714.454 86.4957 714.896 86.799C715.347 87.0937 715.694 87.5097 715.936 88.047C716.179 88.5843 716.3 89.217 716.3 89.945H715.26C715.26 89.3903 715.187 88.918 715.039 88.528C714.892 88.1293 714.671 87.8217 714.376 87.605C714.09 87.3883 713.739 87.28 713.323 87.28C712.899 87.28 712.522 87.384 712.192 87.592C711.872 87.7913 711.625 88.0773 711.451 88.45C711.278 88.8227 711.191 89.2603 711.191 89.763C711.191 90.257 711.287 90.686 711.477 91.05C711.668 91.4053 711.932 91.687 712.27 91.895C712.608 92.0943 712.99 92.194 713.414 92.194C713.865 92.194 714.246 92.0857 714.558 91.869C714.87 91.6523 715.117 91.3707 715.299 91.024L716.209 91.479C716.045 91.817 715.824 92.1117 715.546 92.363C715.278 92.6143 714.957 92.8093 714.584 92.948C714.22 93.0867 713.813 93.156 713.362 93.156ZM710.827 89.945L710.84 89.048H715.663V89.945H710.827ZM718.184 89.477C718.184 88.775 718.318 88.2073 718.587 87.774C718.856 87.332 719.198 87.007 719.614 86.799C720.039 86.5823 720.485 86.474 720.953 86.474V87.449C720.572 87.449 720.203 87.514 719.848 87.644C719.501 87.7653 719.215 87.969 718.99 88.255C718.765 88.541 718.652 88.931 718.652 89.425L718.184 89.477ZM717.612 93V86.5H718.652V93H717.612ZM731.821 93L728.168 83.9H729.273L732.978 93H731.821ZM724.424 93L728.129 83.9H729.247L725.594 93H724.424ZM726.179 90.413V89.425H731.236V90.413H726.179ZM735.028 90.907L734.365 90.192L737.823 86.5H739.136L735.028 90.907ZM734.014 93V83.9H735.054V93H734.014ZM738.109 93L735.639 89.269L736.315 88.541L739.396 93H738.109ZM744.188 93L744.123 91.934V89.568C744.123 89.0567 744.063 88.6363 743.941 88.307C743.829 87.969 743.651 87.7177 743.408 87.553C743.174 87.3797 742.862 87.293 742.472 87.293C742.1 87.293 741.775 87.3667 741.497 87.514C741.229 87.6613 741.008 87.891 740.834 88.203L739.898 87.826C740.072 87.5227 740.28 87.2583 740.522 87.033C740.765 86.8077 741.047 86.6387 741.367 86.526C741.697 86.4047 742.069 86.344 742.485 86.344C743.083 86.344 743.582 86.461 743.98 86.695C744.379 86.929 744.678 87.28 744.877 87.748C745.077 88.2073 745.172 88.7837 745.163 89.477L745.15 93H744.188ZM742.238 93.156C741.476 93.156 740.878 92.9827 740.444 92.636C740.02 92.2807 739.807 91.791 739.807 91.167C739.807 90.5083 740.024 90.0057 740.457 89.659C740.899 89.3037 741.515 89.126 742.303 89.126H744.162V89.997H742.537C741.931 89.997 741.497 90.0967 741.237 90.296C740.986 90.4953 740.86 90.7813 740.86 91.154C740.86 91.492 740.986 91.7607 741.237 91.96C741.489 92.1507 741.84 92.246 742.29 92.246C742.663 92.246 742.988 92.1593 743.265 91.986C743.543 91.8127 743.755 91.5787 743.902 91.284C744.05 90.9807 744.123 90.6383 744.123 90.257H744.76C744.76 91.141 744.544 91.8473 744.11 92.376C743.677 92.896 743.053 93.156 742.238 93.156ZM751.621 93L751.569 91.791V83.9H752.609V93H751.621ZM749.372 93.156C748.792 93.156 748.28 93.013 747.838 92.727C747.396 92.441 747.05 92.0423 746.798 91.531C746.556 91.011 746.434 90.4173 746.434 89.75C746.434 89.074 746.556 88.4803 746.798 87.969C747.05 87.4577 747.396 87.059 747.838 86.773C748.28 86.487 748.792 86.344 749.372 86.344C749.918 86.344 750.395 86.487 750.802 86.773C751.218 87.059 751.539 87.4577 751.764 87.969C751.99 88.4803 752.102 89.074 752.102 89.75C752.102 90.4173 751.99 91.011 751.764 91.531C751.539 92.0423 751.218 92.441 750.802 92.727C750.395 93.013 749.918 93.156 749.372 93.156ZM749.606 92.207C749.988 92.207 750.326 92.103 750.62 91.895C750.915 91.687 751.145 91.3967 751.309 91.024C751.483 90.6513 751.569 90.2267 751.569 89.75C751.569 89.2733 751.483 88.8487 751.309 88.476C751.145 88.1033 750.915 87.813 750.62 87.605C750.326 87.397 749.983 87.293 749.593 87.293C749.186 87.293 748.822 87.397 748.501 87.605C748.189 87.813 747.942 88.1033 747.76 88.476C747.578 88.8487 747.487 89.2733 747.487 89.75C747.487 90.2267 747.578 90.6513 747.76 91.024C747.942 91.3967 748.194 91.687 748.514 91.895C748.835 92.103 749.199 92.207 749.606 92.207ZM757.276 93.156C756.643 93.156 756.084 93.013 755.599 92.727C755.113 92.4323 754.732 92.0293 754.455 91.518C754.186 91.0067 754.052 90.4173 754.052 89.75C754.052 89.0827 754.186 88.4933 754.455 87.982C754.732 87.4707 755.109 87.072 755.586 86.786C756.071 86.4913 756.626 86.344 757.25 86.344C757.848 86.344 758.368 86.4957 758.81 86.799C759.26 87.0937 759.607 87.5097 759.85 88.047C760.092 88.5843 760.214 89.217 760.214 89.945H759.174C759.174 89.3903 759.1 88.918 758.953 88.528C758.805 88.1293 758.584 87.8217 758.29 87.605C758.004 87.3883 757.653 87.28 757.237 87.28C756.812 87.28 756.435 87.384 756.106 87.592C755.785 87.7913 755.538 88.0773 755.365 88.45C755.191 88.8227 755.105 89.2603 755.105 89.763C755.105 90.257 755.2 90.686 755.391 91.05C755.581 91.4053 755.846 91.687 756.184 91.895C756.522 92.0943 756.903 92.194 757.328 92.194C757.778 92.194 758.16 92.0857 758.472 91.869C758.784 91.6523 759.031 91.3707 759.213 91.024L760.123 91.479C759.958 91.817 759.737 92.1117 759.46 92.363C759.191 92.6143 758.87 92.8093 758.498 92.948C758.134 93.0867 757.726 93.156 757.276 93.156ZM754.741 89.945L754.754 89.048H759.577V89.945H754.741ZM761.525 93V86.5H762.5L762.565 87.696V93H761.525ZM766.088 93V89.672L767.128 89.282V93H766.088ZM770.664 93V89.672L771.704 89.282V93H770.664ZM766.088 89.672C766.088 89.0307 766.015 88.541 765.867 88.203C765.72 87.865 765.516 87.6353 765.256 87.514C764.996 87.384 764.702 87.319 764.372 87.319C763.8 87.319 763.354 87.5227 763.033 87.93C762.721 88.3287 762.565 88.8963 762.565 89.633H762.058C762.058 88.9483 762.158 88.359 762.357 87.865C762.557 87.371 762.843 86.994 763.215 86.734C763.597 86.474 764.056 86.344 764.593 86.344C765.382 86.344 766.002 86.5867 766.452 87.072C766.912 87.5573 767.137 88.294 767.128 89.282L766.088 89.672ZM770.664 89.672C770.664 89.0307 770.586 88.541 770.43 88.203C770.283 87.865 770.079 87.6353 769.819 87.514C769.559 87.384 769.265 87.319 768.935 87.319C768.363 87.319 767.917 87.5227 767.596 87.93C767.284 88.3287 767.128 88.8963 767.128 89.633H766.621C766.621 88.9483 766.721 88.359 766.92 87.865C767.12 87.371 767.41 86.994 767.791 86.734C768.173 86.474 768.632 86.344 769.169 86.344C769.949 86.344 770.565 86.5867 771.015 87.072C771.475 87.5573 771.704 88.294 771.704 89.282L770.664 89.672ZM773.41 93L773.436 86.5H774.476L774.45 93H773.41ZM773.943 84.992C773.769 84.992 773.618 84.927 773.488 84.797C773.358 84.667 773.293 84.5153 773.293 84.342C773.293 84.16 773.358 84.0083 773.488 83.887C773.618 83.757 773.769 83.692 773.943 83.692C774.125 83.692 774.276 83.757 774.398 83.887C774.528 84.0083 774.593 84.16 774.593 84.342C774.593 84.5153 774.528 84.667 774.398 84.797C774.276 84.927 774.125 84.992 773.943 84.992ZM779.213 93.156C778.58 93.156 778.021 93.013 777.536 92.727C777.051 92.4323 776.669 92.0293 776.392 91.518C776.123 91.0067 775.989 90.4173 775.989 89.75C775.989 89.0827 776.123 88.4933 776.392 87.982C776.669 87.4707 777.046 87.072 777.523 86.786C778.008 86.4913 778.563 86.344 779.187 86.344C779.785 86.344 780.305 86.4957 780.747 86.799C781.198 87.0937 781.544 87.5097 781.787 88.047C782.03 88.5843 782.151 89.217 782.151 89.945H781.111C781.111 89.3903 781.037 88.918 780.89 88.528C780.743 88.1293 780.522 87.8217 780.227 87.605C779.941 87.3883 779.59 87.28 779.174 87.28C778.749 87.28 778.372 87.384 778.043 87.592C777.722 87.7913 777.475 88.0773 777.302 88.45C777.129 88.8227 777.042 89.2603 777.042 89.763C777.042 90.257 777.137 90.686 777.328 91.05C777.519 91.4053 777.783 91.687 778.121 91.895C778.459 92.0943 778.84 92.194 779.265 92.194C779.716 92.194 780.097 92.0857 780.409 91.869C780.721 91.6523 780.968 91.3707 781.15 91.024L782.06 91.479C781.895 91.817 781.674 92.1117 781.397 92.363C781.128 92.6143 780.808 92.8093 780.435 92.948C780.071 93.0867 779.664 93.156 779.213 93.156ZM776.678 89.945L776.691 89.048H781.514V89.945H776.678ZM791.095 93.156C790.167 93.156 789.348 92.9567 788.638 92.558C787.927 92.1507 787.368 91.596 786.961 90.894C786.562 90.1833 786.363 89.373 786.363 88.463C786.363 87.5357 786.562 86.721 786.961 86.019C787.368 85.3083 787.927 84.7537 788.638 84.355C789.348 83.9477 790.167 83.744 791.095 83.744C791.58 83.744 792.052 83.8263 792.512 83.991C792.971 84.147 793.391 84.3637 793.773 84.641C794.154 84.9183 794.462 85.2347 794.696 85.59L793.825 86.188C793.651 85.9107 793.417 85.6637 793.123 85.447C792.828 85.2217 792.503 85.0483 792.148 84.927C791.801 84.8057 791.45 84.745 791.095 84.745C790.393 84.745 789.769 84.9053 789.223 85.226C788.677 85.538 788.248 85.9713 787.936 86.526C787.624 87.0807 787.468 87.7263 787.468 88.463C787.468 89.1737 787.619 89.8107 787.923 90.374C788.235 90.9287 788.664 91.3663 789.21 91.687C789.764 92.0077 790.393 92.168 791.095 92.168C791.684 92.168 792.204 92.0467 792.655 91.804C793.114 91.5527 793.474 91.2103 793.734 90.777C793.994 90.335 794.124 89.828 794.124 89.256L795.177 89.178C795.177 89.9753 795.003 90.673 794.657 91.271C794.31 91.8603 793.829 92.324 793.214 92.662C792.598 92.9913 791.892 93.156 791.095 93.156ZM791.888 89.308V88.359H795.177V89.217L794.657 89.308H791.888ZM796.552 93V86.5H797.527L797.592 87.696V93H796.552ZM801.115 93V89.672L802.155 89.282V93H801.115ZM805.691 93V89.672L806.731 89.282V93H805.691ZM801.115 89.672C801.115 89.0307 801.041 88.541 800.894 88.203C800.746 87.865 800.543 87.6353 800.283 87.514C800.023 87.384 799.728 87.319 799.399 87.319C798.827 87.319 798.38 87.5227 798.06 87.93C797.748 88.3287 797.592 88.8963 797.592 89.633H797.085C797.085 88.9483 797.184 88.359 797.384 87.865C797.583 87.371 797.869 86.994 798.242 86.734C798.623 86.474 799.082 86.344 799.62 86.344C800.408 86.344 801.028 86.5867 801.479 87.072C801.938 87.5573 802.163 88.294 802.155 89.282L801.115 89.672ZM805.691 89.672C805.691 89.0307 805.613 88.541 805.457 88.203C805.309 87.865 805.106 87.6353 804.846 87.514C804.586 87.384 804.291 87.319 803.962 87.319C803.39 87.319 802.943 87.5227 802.623 87.93C802.311 88.3287 802.155 88.8963 802.155 89.633H801.648C801.648 88.9483 801.747 88.359 801.947 87.865C802.146 87.371 802.436 86.994 802.818 86.734C803.199 86.474 803.658 86.344 804.196 86.344C804.976 86.344 805.591 86.5867 806.042 87.072C806.501 87.5573 806.731 88.294 806.731 89.282L805.691 89.672ZM808.371 93V83.9H809.411V91.791L809.359 93H808.371ZM811.608 93.156C811.062 93.156 810.581 93.013 810.165 92.727C809.758 92.441 809.441 92.0423 809.216 91.531C808.991 91.011 808.878 90.4173 808.878 89.75C808.878 89.074 808.991 88.4803 809.216 87.969C809.441 87.4577 809.758 87.059 810.165 86.773C810.581 86.487 811.062 86.344 811.608 86.344C812.189 86.344 812.7 86.487 813.142 86.773C813.584 87.059 813.926 87.4577 814.169 87.969C814.42 88.4803 814.546 89.074 814.546 89.75C814.546 90.4173 814.42 91.011 814.169 91.531C813.926 92.0423 813.584 92.441 813.142 92.727C812.7 93.013 812.189 93.156 811.608 93.156ZM811.374 92.207C811.781 92.207 812.141 92.103 812.453 91.895C812.774 91.687 813.025 91.3967 813.207 91.024C813.398 90.6513 813.493 90.2267 813.493 89.75C813.493 89.2733 813.402 88.8487 813.22 88.476C813.047 88.1033 812.8 87.813 812.479 87.605C812.158 87.397 811.794 87.293 811.387 87.293C811.006 87.293 810.663 87.397 810.36 87.605C810.065 87.813 809.831 88.1033 809.658 88.476C809.493 88.8487 809.411 89.2733 809.411 89.75C809.411 90.2267 809.493 90.6513 809.658 91.024C809.831 91.3967 810.065 91.687 810.36 91.895C810.655 92.103 810.993 92.207 811.374 92.207ZM822.54 93V83.9H823.632V93H822.54ZM816.287 93V83.9H817.392V93H816.287ZM817.262 88.814V87.813H822.774V88.814H817.262Z" fill="#627B84"/>
</g>
<defs>
<clipPath id="clip0_401_1332">
<rect width="1440" height="128" fill="white"/>
</clipPath>
</defs>
</svg>
